<svg width="1280" height="720" viewBox="0 0 1280 720" fill="none" xmlns="http://www.w3.org/2000/svg">
  <rect width="1280" height="720" rx="32" fill="#DFF0F7"/>
  <rect x="0" y="0" width="1280" height="112" fill="#143252"/>
  <circle cx="78" cy="56" r="18" fill="#E6C27F"/>
  <path d="M78 30C81 41 89 49 97 57C106 66 111 76 111 88C111 107 97 122 78 122C59 122 45 107 45 88C45 76 50 66 59 57C67 49 75 41 78 30Z" fill="#F8FBFD"/>
  <path d="M80 53C82 59 86 64 90 68C95 73 97 78 97 84C97 95 89 103 79 103C68 103 60 95 60 84C60 78 63 73 68 68C71 64 76 60 80 53Z" fill="#E6C27F"/>
  <text x="122" y="66" fill="white" font-family="Arial, Helvetica, sans-serif" font-size="44" font-weight="700">BurnBox</text>
  <text x="122" y="95" fill="#DDEBF8" font-family="Arial, Helvetica, sans-serif" font-size="18">Private R2 workspace with controlled release windows</text>

  <rect x="60" y="146" width="1160" height="166" rx="28" fill="#F8FCFE" stroke="#C8DCE6"/>
  <rect x="92" y="178" width="260" height="34" rx="17" fill="#D7E4EE"/>
  <text x="114" y="201" fill="#1D436B" font-family="Arial, Helvetica, sans-serif" font-size="18" letter-spacing="2">BURNBOX 2.0 / PRIVATE R2 DROP</text>
  <text x="92" y="258" fill="#243547" font-family="Arial Black, Arial, Helvetica, sans-serif" font-size="78" font-weight="900">Keep the file.</text>
  <text x="92" y="304" fill="#243547" font-family="Arial Black, Arial, Helvetica, sans-serif" font-size="78" font-weight="900">Control the reach.</text>
  <text x="92" y="280" fill="#4F6274" font-family="Arial, Helvetica, sans-serif" font-size="24" opacity="0">.</text>
  <text x="92" y="284" fill="#4F6274" font-family="Arial, Helvetica, sans-serif" font-size="24">Operate durable storage privately. Issue temporary links only when needed.</text>

  <rect x="60" y="340" width="1160" height="110" rx="28" fill="#E6C27F" stroke="#D3B06C"/>
  <text x="92" y="392" fill="#243547" font-family="Arial Black, Arial, Helvetica, sans-serif" font-size="34" font-weight="900">Upload Desk</text>
  <rect x="92" y="405" width="220" height="18" rx="9" fill="#EED6A8"/>
  <rect x="328" y="405" width="220" height="18" rx="9" fill="#EED6A8"/>
  <rect x="564" y="405" width="220" height="18" rx="9" fill="#EED6A8"/>
  <rect x="978" y="372" width="178" height="48" rx="24" fill="#A1201D"/>
  <text x="1032" y="402" fill="white" font-family="Arial, Helvetica, sans-serif" font-size="24" font-weight="700">Upload</text>

  <rect x="60" y="476" width="1160" height="184" rx="28" fill="#F8FCFE" stroke="#C8DCE6"/>
  <text x="92" y="532" fill="#243547" font-family="Arial Black, Arial, Helvetica, sans-serif" font-size="48" font-weight="900">Files</text>
  <text x="92" y="566" fill="#4F6274" font-family="Arial, Helvetica, sans-serif" font-size="24">File inventory, share status, and operator actions live in one workspace.</text>

  <rect x="92" y="590" width="340" height="42" rx="21" fill="#E9EFF4"/>
  <text x="114" y="617" fill="#4F6274" font-family="Arial, Helvetica, sans-serif" font-size="20">example-build.dmg</text>
  <rect x="462" y="590" width="220" height="42" rx="21" fill="#E9EFF4"/>
  <text x="484" y="617" fill="#4F6274" font-family="Arial, Helvetica, sans-serif" font-size="20">No expiration</text>
  <rect x="708" y="590" width="120" height="42" rx="21" fill="#1D436B"/>
  <text x="743" y="617" fill="white" font-family="Arial, Helvetica, sans-serif" font-size="20" font-weight="700">Share</text>
  <rect x="844" y="590" width="120" height="42" rx="21" fill="white" stroke="#C8DCE6"/>
  <text x="875" y="617" fill="#1D436B" font-family="Arial, Helvetica, sans-serif" font-size="20" font-weight="700">Copy</text>
  <rect x="980" y="590" width="120" height="42" rx="21" fill="#B32A26"/>
  <text x="1014" y="617" fill="white" font-family="Arial, Helvetica, sans-serif" font-size="20" font-weight="700">Delete</text>

  <text x="92" y="688" fill="#5B6E80" font-family="Arial, Helvetica, sans-serif" font-size="18">Public repository preview illustration. Actual interface is rendered by the Worker.</text>
</svg>
